<svg xmlns="http://www.w3.org/2000/svg" xmlns:xlink="http://www.w3.org/1999/xlink" width="800" height="400"><g transform="translate(0 0)"><path d="M0 0h800v400H0z" fill="#fff"/><path d="M60 180h100v40H60z" stroke="#494949" stroke-width="2" fill="#fff"/><use xlink:href="#a" transform="matrix(1,0,0,1,65,185) translate(11.599999999999994 18.6)"/><path d="M60 240h120v99H60z" fill="#fff"/><path d="M72 240H60v99h12" stroke="#494949" stroke-width="2" fill="none"/><use xlink:href="#b" transform="matrix(1,0,0,1,72.5,245) translate(0 15.69999999999999)"/><use xlink:href="#c" transform="matrix(1,0,0,1,72.5,245) translate(0 37.29999999999999)"/><use xlink:href="#d" transform="matrix(1,0,0,1,72.5,245) translate(0 58.89999999999999)"/><use xlink:href="#e" transform="matrix(1,0,0,1,72.5,245) translate(0 80.5)"/><path d="M300 60h100v40H300z" stroke="#494949" stroke-width="2" fill="#fff"/><use xlink:href="#f" transform="matrix(1,0,0,1,305,65) translate(23.525 18.6)"/><path d="M300 140h100v40H300z" stroke="#494949" stroke-width="2" fill="#fff"/><use xlink:href="#g" transform="matrix(1,0,0,1,305,145) translate(27.525 18.6)"/><path d="M300 299.17h100v40H300z" stroke="#494949" stroke-width="2" fill="#fff"/><use xlink:href="#h" transform="matrix(1,0,0,1,305,304.16666666666663) translate(33.525 18.6)"/><path d="M300 220h100v40H300z" stroke="#494949" stroke-width="2" fill="#fff"/><use xlink:href="#i" transform="matrix(1,0,0,1,305,225) translate(30.5 18.6)"/><path d="M160 200l2.5-.05 2.4-.15 2.3-.25 2.25-.32 2.16-.42 2.13-.48 2.07-.58 2.04-.67 2.02-.75 2-.84 2.02-.95 2-1.05 2.05-1.18L190 191l2.1-1.47 2.17-1.65 2.24-1.86 2.36-2.1 2.48-2.45 2.66-2.83 2.9-3.37 3.28-4.13 3.85-5.32 5.05-7.62 26.9-44.02 3.84-5.32 3.27-4.13 2.9-3.37 2.66-2.83 2.48-2.44 2.35-2.12 2.23-1.86 2.17-1.65L270 89l2.07-1.3 2.04-1.18 2.02-1.05 2-.95 2.02-.84 2.02-.75 2.04-.67 2.07-.58 2.12-.5 2.15-.4 2.24-.33 2.3-.25 2.4-.15L300 80" stroke="#494949" stroke-width="2" fill="none"/><path d="M160.14 201H160V200zM300 80l-13.52 6.5-1.24-9.2z" fill="#494949"/><path d="M300 78.98v2.13L285.67 88l-1.6-11.93zm-12.7 6l9.5-4.55-10.38-1.9z" fill="#494949"/><path d="M160 200l7.18-.15 6.32-.4 5.65-.58 5.15-.76 4.76-.9 4.48-1.05 4.3-1.2 4.2-1.37 4.25-1.58 4.44-1.87 5.02-2.37 6.9-3.62 21.58-11.9 5.02-2.37 4.45-1.87 4.25-1.58 4.2-1.37 4.3-1.2 4.5-1.05 4.75-.9 5.15-.77 5.65-.6 6.32-.38L300 160" stroke="#494949" stroke-width="2" fill="none"/><path d="M160.05 201H160v-1.05zM300 160l-14.04 5.3-.43-9.27z" fill="#494949"/><path d="M300 158.96v2.1l-14.97 5.65-.56-12zm-13.1 4.9l9.87-3.7-10.17-2.8z" fill="#494949"/><path d="M160 200l2.53.05 2.4.15 2.33.25 2.25.33 2.2.42 2.1.5 2.1.58 2.05.66 2.03.76 2.02.85 2 .95 2.04 1.05 2.04 1.18 2.07 1.32 2.12 1.47 2.18 1.65 2.25 1.87 2.36 2.13 2.5 2.44 2.67 2.87 2.93 3.4 3.3 4.16 3.9 5.4 5.2 7.82 26.07 42.5 3.9 5.38 3.3 4.17 2.94 3.4 2.67 2.85 2.5 2.45 2.36 2.12 2.25 1.87 2.18 1.65 2.12 1.47 2.07 1.3 2.04 1.2 2.03 1.05 2 .95 2.02.85 2.03.75 2.05.67 2.1.57 2.1.5 2.2.42 2.24.32 2.32.24 2.4.15 2.54.07" stroke="#494949" stroke-width="2" fill="none"/><path d="M160.13 199l-.13 1.02V199zM300 319.17l-14.75 2.7 1.22-9.18z" fill="#494949"/><path d="M300 318.06v2.12l-15.93 2.93 1.6-11.9zm-13.58 2.58l10.37-1.9-9.52-4.56z" fill="#494949"/><path d="M160 200l7.18.15 6.32.4 5.65.58 5.15.76 4.76.9 4.48 1.05 4.3 1.2 4.2 1.37 4.25 1.58 4.44 1.87 5.02 2.37 6.9 3.62 21.58 11.9 5.02 2.37 4.45 1.87 4.25 1.58 4.2 1.37 4.3 1.2 4.5 1.05 4.75.9 5.15.77 5.65.6 6.32.38 7.18.15" stroke="#494949" stroke-width="2" fill="none"/><path d="M160.05 199l-.05 1.05V199zM300 240l-14.47 3.97.44-9.26z" fill="#494949"/><path d="M300 238.93v2.1l-15.53 4.27.56-12zm-13.4 3.7l10.17-2.78-9.87-3.72z" fill="#494949"/><path d="M420 60h320v40H420z" fill="none"/><use xlink:href="#j" transform="matrix(1,0,0,1,425,65) translate(0 18.6)"/><use xlink:href="#k" transform="matrix(1,0,0,1,425,65) translate(62.1 18.6)"/><use xlink:href="#l" transform="matrix(1,0,0,1,425,65) translate(142.4 18.6)"/><use xlink:href="#m" transform="matrix(1,0,0,1,425,65) translate(199.4 18.6)"/><path d="M420 140h320v40H420z" fill="none"/><g><use xlink:href="#n" transform="matrix(1,0,0,1,425,145) translate(0 18.6)"/><use xlink:href="#o" transform="matrix(1,0,0,1,425,145) translate(93.64999999999999 18.6)"/></g><path d="M420 293.4h280v53.2H420z" fill="none"/><g><use xlink:href="#p" transform="matrix(1,0,0,1,425,298.4) translate(0 14.799999999999999)"/><use xlink:href="#q" transform="matrix(1,0,0,1,425,298.4) translate(62.55 14.799999999999999)"/><use xlink:href="#r" transform="matrix(1,0,0,1,425,298.4) translate(0 36.4)"/><use xlink:href="#s" transform="matrix(1,0,0,1,425,298.4) translate(99.19999999999999 36.4)"/><use xlink:href="#t" transform="matrix(1,0,0,1,425,298.4) translate(159.79999999999998 36.4)"/></g><path d="M420 220h360v40H420z" fill="none"/><g><use xlink:href="#n" transform="matrix(1,0,0,1,425,225) translate(0 18.6)"/><use xlink:href="#k" transform="matrix(1,0,0,1,425,225) translate(93.64999999999999 18.6)"/><use xlink:href="#l" transform="matrix(1,0,0,1,425,225) translate(173.95 18.6)"/><use xlink:href="#u" transform="matrix(1,0,0,1,425,225) translate(230.95 18.6)"/></g><defs><path fill="#494949" d="M100-194c62-1 85 37 85 99 1 63-27 99-86 99S16-35 15-95c0-66 28-99 85-99zM99-20c44 1 53-31 53-75 0-43-8-75-51-75s-53 32-53 75 10 74 51 75" id="v"/><path fill="#494949" d="M114-163C36-179 61-72 57 0H25l-1-190h30c1 12-1 29 2 39 6-27 23-49 58-41v29" id="w"/><path fill="#494949" d="M24-231v-30h32v30H24zM24 0v-190h32V0H24" id="x"/><path fill="#494949" d="M177-190C167-65 218 103 67 71c-23-6-38-20-44-43l32-5c15 47 100 32 89-28v-30C133-14 115 1 83 1 29 1 15-40 15-95c0-56 16-97 71-98 29-1 48 16 59 35 1-10 0-23 2-32h30zM94-22c36 0 50-32 50-73 0-42-14-75-50-75-39 0-46 34-46 75s6 73 46 73" id="y"/><path fill="#494949" d="M117-194c89-4 53 116 60 194h-32v-121c0-31-8-49-39-48C34-167 62-67 57 0H25l-1-190h30c1 10-1 24 2 32 11-22 29-35 61-36" id="z"/><path fill="#494949" d="M141-36C126-15 110 5 73 4 37 3 15-17 15-53c-1-64 63-63 125-63 3-35-9-54-41-54-24 1-41 7-42 31l-33-3c5-37 33-52 76-52 45 0 72 20 72 64v82c-1 20 7 32 28 27v20c-31 9-61-2-59-35zM48-53c0 20 12 33 32 33 41-3 63-29 60-74-43 2-92-5-92 41" id="A"/><path fill="#494949" d="M24 0v-261h32V0H24" id="B"/><path fill="#494949" d="M135-143c-3-34-86-38-87 0 15 53 115 12 119 90S17 21 10-45l28-5c4 36 97 45 98 0-10-56-113-15-118-90-4-57 82-63 122-42 12 7 21 19 24 35" id="C"/><g id="a"><use transform="matrix(0.05,0,0,0.05,0,0)" xlink:href="#v"/><use transform="matrix(0.05,0,0,0.05,10,0)" xlink:href="#w"/><use transform="matrix(0.05,0,0,0.05,15.949999999999998,0)" xlink:href="#x"/><use transform="matrix(0.05,0,0,0.05,19.9,0)" xlink:href="#y"/><use transform="matrix(0.05,0,0,0.05,29.899999999999995,0)" xlink:href="#x"/><use transform="matrix(0.05,0,0,0.05,33.85,0)" xlink:href="#z"/><use transform="matrix(0.05,0,0,0.05,43.85,0)" xlink:href="#A"/><use transform="matrix(0.05,0,0,0.05,53.85,0)" xlink:href="#B"/><use transform="matrix(0.05,0,0,0.05,57.800000000000004,0)" xlink:href="#C"/></g><path fill="#494949" d="M30 0v-248h30L58-37l132-211h39V0h-30l1-209L70 0H30" id="D"/><path fill="#494949" d="M96-169c-40 0-48 33-48 73s9 75 48 75c24 0 41-14 43-38l32 2c-6 37-31 61-74 61-59 0-76-41-82-99-10-93 101-131 147-64 4 7 5 14 7 22l-32 3c-4-21-16-35-41-35" id="E"/><path fill="#494949" d="M141 0L90-78 38 0H4l68-98-65-92h35l48 74 47-74h35l-64 92 68 98h-35" id="F"/><path fill="#494949" d="M100-194c62-1 85 37 85 99 1 63-27 99-86 99S16-35 15-95c0-66 28-99 85-99zM99-20c44 1 53-31 53-75 0-43-8-75-51-75s-53 32-53 75 10 74 51 75" id="G"/><path fill="#494949" d="M147-167H93C83-118 77-63 59-23h88v-144zM24-23c26-44 31-102 41-167h113v167h26v95h-29V0H32v72H4v-95h20" id="H"/><path fill="#494949" d="M57-190v80h85v-80h32V0h-32v-87H57V0H25v-190h32" id="I"/><path fill="#494949" d="M56-190L54-37l88-153h34V0h-30l2-153L59 0H25v-190h31" id="J"/><path fill="#494949" d="M75-87c-4 1-14 3-19 3V0H24v-190h32v83c26-2 31-21 43-41l26-42h33l-61 86L159 0h-35" id="K"/><g id="b"><use transform="matrix(0.05,0,0,0.05,0,0)" xlink:href="#D"/><use transform="matrix(0.05,0,0,0.05,12.9,0)" xlink:href="#E"/><use transform="matrix(0.05,0,0,0.05,21.9,0)" xlink:href="#F"/><use transform="matrix(0.05,0,0,0.05,30.700000000000003,0)" xlink:href="#G"/><use transform="matrix(0.05,0,0,0.05,40.3,0)" xlink:href="#H"/><use transform="matrix(0.05,0,0,0.05,50.8,0)" xlink:href="#I"/><use transform="matrix(0.05,0,0,0.05,60.69999999999999,0)" xlink:href="#J"/><use transform="matrix(0.05,0,0,0.05,70.75,0)" xlink:href="#K"/><use transform="matrix(0.05,0,0,0.05,78.6,0)" xlink:href="#J"/></g><path fill="#494949" d="M176-55C176 11 93 0 25 0v-190c61 3 142-15 144 47 1 29-21 35-39 44 27 3 46 16 46 44zm-34 0c0-41-47-30-85-32v64c38-1 85 8 85-32zm-6-83c0-36-44-26-79-28v56c34-2 79 8 79-28" id="L"/><path fill="#494949" d="M100-194c63 0 86 42 84 106H49c0 40 14 67 53 68 26 1 43-12 49-29l28 8c-11 28-37 45-77 45C44 4 14-33 15-96c1-61 26-98 85-98zm52 81c6-60-76-77-97-28-3 7-6 17-6 28h103" id="M"/><g id="c"><use transform="matrix(0.05,0,0,0.05,0,0)" xlink:href="#L"/><use transform="matrix(0.05,0,0,0.05,9.350000000000001,0)" xlink:href="#E"/><use transform="matrix(0.05,0,0,0.05,18.35,0)" xlink:href="#M"/><use transform="matrix(0.05,0,0,0.05,27.950000000000003,0)" xlink:href="#F"/></g><path fill="#494949" d="M6-190h153v23H98V0H67v-167H6v-23" id="N"/><path fill="#494949" d="M20-138c-1-64 85-51 150-52V0h-32v-81H94L39 0H3l60-83c-28-5-43-24-43-55zm33 3c0 40 46 33 85 33v-66c-39 0-85-6-85 33" id="O"/><path fill="#494949" d="M156-87c-4 1-15 3-20 3V0h-31v-84c-5 0-16-2-20-3L36 0H1l62-104c-22-24-40-59-60-86h33l50 76c5 5 9 7 19 7v-83h31v83c27-1 31-21 43-41l26-42h33l-60 86L240 0h-36" id="P"/><path fill="#494949" d="M153 0v-167H87C74-108 81-27 38 0 29 5 12 6 2 1v-22c51 4 39-64 49-112 5-25 4-25 8-57h126V0h-32" id="Q"/><path fill="#494949" d="M170-56C169 10 92 0 25 0v-190h32v80c58-2 114-1 113 54zm-34 0c0-38-42-32-79-32v66c38 0 79 5 79-34zm66 56v-190h32V0h-32" id="R"/><g id="d"><use transform="matrix(0.05,0,0,0.05,0,0)" xlink:href="#N"/><use transform="matrix(0.05,0,0,0.05,8.200000000000001,0)" xlink:href="#O"/><use transform="matrix(0.05,0,0,0.05,17.900000000000002,0)" xlink:href="#P"/><use transform="matrix(0.05,0,0,0.05,29.900000000000002,0)" xlink:href="#M"/><use transform="matrix(0.05,0,0,0.05,39.3,0)" xlink:href="#Q"/><use transform="matrix(0.05,0,0,0.05,49.8,0)" xlink:href="#R"/><use transform="matrix(0.05,0,0,0.05,62.69999999999999,0)" xlink:href="#F"/></g><path fill="#494949" d="M217-194c52 0 64 44 64 98S268 2 217 4c-29 1-44-13-55-34l1 105h-30V-31C124-8 108 4 79 4 29 4 16-37 15-94c0-57 15-98 64-100 29 0 44 14 55 33l-1-100h30v101c10-23 24-34 54-34zM89-170c-37 1-41 36-41 75 0 37 3 74 40 74 39 0 45-35 45-76-1-39-6-73-44-73zM207-20c38 0 41-36 41-75 0-38-3-74-40-74-41 0-45 36-45 80 1 38 7 69 44 69" id="S"/><path fill="#494949" d="M141-36C126-15 110 5 73 4 37 3 15-17 15-53c-1-64 63-63 125-63 3-35-9-54-41-54-24 1-41 7-42 31l-33-3c5-37 33-52 76-52 45 0 72 20 72 64v82c-1 20 7 32 28 27v20c-31 9-61-2-59-35zM48-53c0 20 12 33 32 33 41-3 63-29 60-74-43 2-92-5-92 41" id="T"/><path fill="#494949" d="M165-267c8 67-110 75-125 20-2-7-4-13-4-20h29c1 23 13 35 36 35s34-13 36-35h28zM56-190L54-37l88-153h34V0h-30l2-153L59 0H25v-190h31" id="U"/><g id="e"><use transform="matrix(0.05,0,0,0.05,0,0)" xlink:href="#S"/><use transform="matrix(0.05,0,0,0.05,14.8,0)" xlink:href="#T"/><use transform="matrix(0.05,0,0,0.05,24.8,0)" xlink:href="#U"/><use transform="matrix(0.05,0,0,0.05,34.85,0)" xlink:href="#Q"/><use transform="matrix(0.05,0,0,0.05,45.550000000000004,0)" xlink:href="#G"/><use transform="matrix(0.05,0,0,0.05,55.550000000000004,0)" xlink:href="#L"/></g><path fill="#494949" d="M108 0H70L1-190h34L89-25l56-165h34" id="V"/><path fill="#494949" d="M85-194c31 0 48 13 60 33l-1-100h32l1 261h-30c-2-10 0-23-3-31C134-8 116 4 85 4 32 4 16-35 15-94c0-66 23-100 70-100zm9 24c-40 0-46 34-46 75 0 40 6 74 45 74 42 0 51-32 51-76 0-42-9-74-50-73" id="W"/><path fill="#494949" d="M100-194c63 0 86 42 84 106H49c0 40 14 67 53 68 26 1 43-12 49-29l28 8c-11 28-37 45-77 45C44 4 14-33 15-96c1-61 26-98 85-98zm52 81c6-60-76-77-97-28-3 7-6 17-6 28h103" id="X"/><g id="f"><use transform="matrix(0.05,0,0,0.05,0,0)" xlink:href="#V"/><use transform="matrix(0.05,0,0,0.05,9,0)" xlink:href="#x"/><use transform="matrix(0.05,0,0,0.05,12.949999999999998,0)" xlink:href="#W"/><use transform="matrix(0.05,0,0,0.05,22.95,0)" xlink:href="#X"/><use transform="matrix(0.05,0,0,0.05,32.95,0)" xlink:href="#v"/></g><path fill="#494949" d="M115-194c55 1 70 41 70 98S169 2 115 4C84 4 66-9 55-30l1 105H24l-1-265h31l2 30c10-21 28-34 59-34zm-8 174c40 0 45-34 45-75s-6-73-45-74c-42 0-51 32-51 76 0 43 10 73 51 73" id="Y"/><g id="g"><use transform="matrix(0.05,0,0,0.05,0,0)" xlink:href="#Y"/><use transform="matrix(0.05,0,0,0.05,10,0)" xlink:href="#w"/><use transform="matrix(0.05,0,0,0.05,15.949999999999998,0)" xlink:href="#X"/><use transform="matrix(0.05,0,0,0.05,25.950000000000003,0)" xlink:href="#C"/></g><path fill="#494949" d="M9 0v-24l116-142H16v-24h144v24L44-24h123V0H9" id="Z"/><g id="h"><use transform="matrix(0.05,0,0,0.05,0,0)" xlink:href="#Z"/><use transform="matrix(0.05,0,0,0.05,9,0)" xlink:href="#x"/><use transform="matrix(0.05,0,0,0.05,12.949999999999998,0)" xlink:href="#Y"/></g><g id="i"><use transform="matrix(0.05,0,0,0.05,0,0)" xlink:href="#Y"/><use transform="matrix(0.05,0,0,0.05,10,0)" xlink:href="#C"/><use transform="matrix(0.05,0,0,0.05,19,0)" xlink:href="#W"/></g><path fill="#494949" d="M154-217c63-1 99 29 99 88s-35 93-99 91V2h-34v-40c-64 1-99-31-99-91s36-90 99-88v-32h34v32zm0 155c44 0 65-24 65-67s-22-64-65-64v131zm-34-131c-43-1-67 20-66 64 0 43 22 67 66 67v-131" id="aa"/><g id="j"><use transform="matrix(0.05,0,0,0.05,0,0)" xlink:href="#aa"/><use transform="matrix(0.05,0,0,0.05,13.65,0)" xlink:href="#T"/><use transform="matrix(0.05,0,0,0.05,23.65,0)" xlink:href="#U"/><use transform="matrix(0.05,0,0,0.05,33.7,0)" xlink:href="#Q"/><use transform="matrix(0.05,0,0,0.05,44.2,0)" xlink:href="#R"/></g><path fill="#494949" d="M170-190V0h-32v-167H57V0H25v-190h145" id="ab"/><path fill="#494949" d="M115-194c55 1 70 41 70 98S169 2 115 4C84 4 66-9 55-30l1 105H24l-1-265h31l2 30c10-21 28-34 59-34zm-8 174c40 0 45-34 45-75s-6-73-45-74c-42 0-51 32-51 76 0 43 10 73 51 73" id="ac"/><g id="k"><use transform="matrix(0.05,0,0,0.05,0,0)" xlink:href="#ab"/><use transform="matrix(0.05,0,0,0.05,9.700000000000001,0)" xlink:href="#ac"/><use transform="matrix(0.05,0,0,0.05,19.700000000000003,0)" xlink:href="#G"/><use transform="matrix(0.05,0,0,0.05,29.700000000000003,0)" xlink:href="#M"/><use transform="matrix(0.05,0,0,0.05,39.7,0)" xlink:href="#K"/><use transform="matrix(0.05,0,0,0.05,47.75000000000001,0)" xlink:href="#N"/><use transform="matrix(0.05,0,0,0.05,55.75,0)" xlink:href="#G"/><use transform="matrix(0.05,0,0,0.05,65.75,0)" xlink:href="#L"/></g><path fill="#494949" d="M115-194c53 0 69 39 70 98 0 66-23 100-70 100C84 3 66-7 56-30L54 0H23l1-261h32v101c10-23 28-34 59-34zm-8 174c40 0 45-34 45-75 0-40-5-75-45-74-42 0-51 32-51 76 0 43 10 73 51 73" id="ad"/><g id="l"><use transform="matrix(0.05,0,0,0.05,0,0)" xlink:href="#E"/><use transform="matrix(0.05,0,0,0.05,12,0)" xlink:href="#W"/><use transform="matrix(0.05,0,0,0.05,22,0)" xlink:href="#v"/><use transform="matrix(0.05,0,0,0.05,32,0)" xlink:href="#ad"/><use transform="matrix(0.05,0,0,0.05,42,0)" xlink:href="#X"/></g><path fill="#494949" d="M30-248c87 1 191-15 191 75 0 78-77 80-158 76V0H30v-248zm33 125c57 0 124 11 124-50 0-59-68-47-124-48v98" id="ae"/><path fill="#494949" d="M210-169c-67 3-38 105-44 169h-31v-121c0-29-5-50-35-48C34-165 62-65 56 0H25l-1-190h30c1 10-1 24 2 32 10-44 99-50 107 0 11-21 27-35 58-36 85-2 47 119 55 194h-31v-121c0-29-5-49-35-48" id="af"/><g id="m"><use transform="matrix(0.05,0,0,0.05,0,0)" xlink:href="#ae"/><use transform="matrix(0.05,0,0,0.05,12,0)" xlink:href="#w"/><use transform="matrix(0.05,0,0,0.05,17.95,0)" xlink:href="#X"/><use transform="matrix(0.05,0,0,0.05,27.950000000000003,0)" xlink:href="#af"/><use transform="matrix(0.05,0,0,0.05,42.9,0)" xlink:href="#x"/><use transform="matrix(0.05,0,0,0.05,46.85,0)" xlink:href="#X"/><use transform="matrix(0.05,0,0,0.05,56.85,0)" xlink:href="#w"/><use transform="matrix(0.05,0,0,0.05,62.800000000000004,0)" xlink:href="#X"/></g><g id="n"><use transform="matrix(0.05,0,0,0.05,0,0)" xlink:href="#D"/><use transform="matrix(0.05,0,0,0.05,12.9,0)" xlink:href="#E"/><use transform="matrix(0.05,0,0,0.05,21.9,0)" xlink:href="#F"/><use transform="matrix(0.05,0,0,0.05,30.700000000000003,0)" xlink:href="#G"/><use transform="matrix(0.05,0,0,0.05,40.3,0)" xlink:href="#H"/><use transform="matrix(0.05,0,0,0.05,50.8,0)" xlink:href="#I"/><use transform="matrix(0.05,0,0,0.05,60.69999999999999,0)" xlink:href="#J"/><use transform="matrix(0.05,0,0,0.05,70.75,0)" xlink:href="#K"/><use transform="matrix(0.05,0,0,0.05,78.6,0)" xlink:href="#J"/></g><path fill="#494949" d="M152-53C154 19 21 22 9-41l28-8c5 36 84 42 81-4-1-29-28-34-58-35v-24c28 0 55-4 55-30 0-19-14-29-34-28-20 0-35 7-38 25l-28-3c4-33 30-46 66-46 37 0 66 15 66 50 0 27-20 41-44 44 27 5 48 17 49 47" id="ag"/><path fill="#494949" d="M57-190v167h83v-167h32v167h26v95h-29V0H25v-190h32" id="ah"/><g id="o"><use transform="matrix(0.05,0,0,0.05,0,0)" xlink:href="#ab"/><use transform="matrix(0.05,0,0,0.05,9.700000000000001,0)" xlink:href="#ac"/><use transform="matrix(0.05,0,0,0.05,19.700000000000003,0)" xlink:href="#M"/><use transform="matrix(0.05,0,0,0.05,29.3,0)" xlink:href="#ag"/><use transform="matrix(0.05,0,0,0.05,37.35000000000001,0)" xlink:href="#M"/><use transform="matrix(0.05,0,0,0.05,47.35000000000001,0)" xlink:href="#I"/><use transform="matrix(0.05,0,0,0.05,57.25,0)" xlink:href="#N"/><use transform="matrix(0.05,0,0,0.05,65.25,0)" xlink:href="#T"/><use transform="matrix(0.05,0,0,0.05,75.25,0)" xlink:href="#ah"/><use transform="matrix(0.05,0,0,0.05,85.55,0)" xlink:href="#J"/><use transform="matrix(0.05,0,0,0.05,95.6,0)" xlink:href="#U"/></g><path fill="#494949" d="M206-28h31V72h-32V0H34v72H3V-28h25c38-50 38-143 51-220h127v220zm-32 0v-192h-66C95-156 94-78 66-28h108" id="ai"/><path fill="#494949" d="M179-190L93 31C79 59 56 82 12 73V49c39 6 53-20 64-50L1-190h34L92-34l54-156h33" id="aj"/><path fill="#494949" d="M121-190v23H57V0H25v-190h96" id="ak"/><g id="p"><use transform="matrix(0.05,0,0,0.05,0,0)" xlink:href="#ai"/><use transform="matrix(0.05,0,0,0.05,12.15,0)" xlink:href="#ac"/><use transform="matrix(0.05,0,0,0.05,21.950000000000003,0)" xlink:href="#aj"/><use transform="matrix(0.05,0,0,0.05,30.950000000000003,0)" xlink:href="#ak"/><use transform="matrix(0.05,0,0,0.05,37.5,0)" xlink:href="#J"/><use transform="matrix(0.05,0,0,0.05,47.55,0)" xlink:href="#M"/></g><path fill="#494949" d="M175-194c59 1 80 36 80 99 0 62-25 99-81 99-54 0-76-36-78-91H57V0H25v-190h32v80h39c4-56 30-84 79-84zm-1 174c42 1 48-34 48-75 0-42-6-75-46-75-41-1-47 34-47 75s6 74 45 75" id="al"/><path fill="#494949" d="M25 0v-190h32v167h71v-167h31v167h71v-167h32v167h26v95h-29V0H25" id="am"/><g id="q"><use transform="matrix(0.05,0,0,0.05,0,0)" xlink:href="#E"/><use transform="matrix(0.05,0,0,0.05,9.2,0)" xlink:href="#G"/><use transform="matrix(0.05,0,0,0.05,19.2,0)" xlink:href="#ab"/><use transform="matrix(0.05,0,0,0.05,28.899999999999995,0)" xlink:href="#aj"/><use transform="matrix(0.05,0,0,0.05,37.9,0)" xlink:href="#N"/><use transform="matrix(0.05,0,0,0.05,45.9,0)" xlink:href="#E"/><use transform="matrix(0.05,0,0,0.05,54.900000000000006,0)" xlink:href="#N"/><use transform="matrix(0.05,0,0,0.05,63.1,0)" xlink:href="#L"/><use transform="matrix(0.05,0,0,0.05,72.25,0)" xlink:href="#aj"/><use transform="matrix(0.05,0,0,0.05,81.25,0)" xlink:href="#al"/><use transform="matrix(0.05,0,0,0.05,94.75,0)" xlink:href="#am"/><use transform="matrix(0.05,0,0,0.05,109.55000000000001,0)" xlink:href="#J"/><use transform="matrix(0.05,0,0,0.05,119.59999999999998,0)" xlink:href="#M"/></g><path fill="#494949" d="M105-20c41 1 53-27 53-68 0-40-9-69-50-69s-54 27-54 69c0 40 12 68 51 68zM47-134c10-28 31-47 68-47 56 0 76 33 76 92 1 60-28 90-86 93C-9 9 1-201 72-238c29-15 73-21 110-26v28c-67 12-144 10-135 102" id="an"/><g id="r"><use transform="matrix(0.05,0,0,0.05,0,0)" xlink:href="#ac"/><use transform="matrix(0.05,0,0,0.05,10,0)" xlink:href="#T"/><use transform="matrix(0.05,0,0,0.05,19.8,0)" xlink:href="#ag"/><use transform="matrix(0.05,0,0,0.05,28.05,0)" xlink:href="#ac"/><use transform="matrix(0.05,0,0,0.05,38.05,0)" xlink:href="#T"/><use transform="matrix(0.05,0,0,0.05,48.05,0)" xlink:href="#an"/><use transform="matrix(0.05,0,0,0.05,58.349999999999994,0)" xlink:href="#G"/><use transform="matrix(0.05,0,0,0.05,67.94999999999999,0)" xlink:href="#N"/><use transform="matrix(0.05,0,0,0.05,76.14999999999999,0)" xlink:href="#K"/><use transform="matrix(0.05,0,0,0.05,84.19999999999999,0)" xlink:href="#M"/></g><g id="s"><use transform="matrix(0.05,0,0,0.05,0,0)" xlink:href="#K"/><use transform="matrix(0.05,0,0,0.05,8.05,0)" xlink:href="#aj"/><use transform="matrix(0.05,0,0,0.05,16.85,0)" xlink:href="#ac"/><use transform="matrix(0.05,0,0,0.05,26.85,0)" xlink:href="#E"/><use transform="matrix(0.05,0,0,0.05,36.05,0)" xlink:href="#G"/><use transform="matrix(0.05,0,0,0.05,46.05,0)" xlink:href="#L"/></g><path fill="#494949" d="M138 0h-27L54-167c3 53 2 111 2 167H25v-190h49c16 56 39 106 51 166 11-61 34-110 50-166h48V0h-31l2-168" id="ao"/><g id="t"><use transform="matrix(0.05,0,0,0.05,0,0)" xlink:href="#ao"/><use transform="matrix(0.05,0,0,0.05,12.350000000000001,0)" xlink:href="#T"/><use transform="matrix(0.05,0,0,0.05,21.950000000000003,0)" xlink:href="#N"/><use transform="matrix(0.05,0,0,0.05,29.950000000000003,0)" xlink:href="#M"/><use transform="matrix(0.05,0,0,0.05,39.95,0)" xlink:href="#ac"/><use transform="matrix(0.05,0,0,0.05,49.95,0)" xlink:href="#J"/><use transform="matrix(0.05,0,0,0.05,60,0)" xlink:href="#T"/><use transform="matrix(0.05,0,0,0.05,70,0)" xlink:href="#Q"/><use transform="matrix(0.05,0,0,0.05,80.5,0)" xlink:href="#R"/></g><path fill="#494949" d="M106-169C34-169 62-67 57 0H25v-261h32l-1 103c12-21 28-36 61-36 89 0 53 116 60 194h-32v-121c2-32-8-49-39-48" id="ap"/><path fill="#494949" d="M59-47c-2 24 18 29 38 22v24C64 9 27 4 27-40v-127H5v-23h24l9-43h21v43h35v23H59v120" id="aq"/><g id="u"><use transform="matrix(0.05,0,0,0.05,0,0)" xlink:href="#ae"/><use transform="matrix(0.05,0,0,0.05,12,0)" xlink:href="#ap"/><use transform="matrix(0.05,0,0,0.05,22,0)" xlink:href="#v"/><use transform="matrix(0.05,0,0,0.05,32,0)" xlink:href="#aq"/><use transform="matrix(0.05,0,0,0.05,37,0)" xlink:href="#v"/><use transform="matrix(0.05,0,0,0.05,47,0)" xlink:href="#C"/><use transform="matrix(0.05,0,0,0.05,56,0)" xlink:href="#ap"/><use transform="matrix(0.05,0,0,0.05,66,0)" xlink:href="#v"/><use transform="matrix(0.05,0,0,0.05,76,0)" xlink:href="#Y"/></g></defs></g></svg>